<mxfile host="app.diagrams.net" agent="Mozilla/5.0 (Windows NT 10.0; Win64; x64) AppleWebKit/537.36 (KHTML, like Gecko) Chrome/131.0.0.0 Safari/537.36" version="24.8.3" pages="2">
  <diagram name="Page-1" id="61cz8CHmRv7663_EVyxC">
    <mxGraphModel dx="987" dy="498" grid="1" gridSize="10" guides="1" tooltips="1" connect="1" arrows="1" fold="1" page="1" pageScale="1" pageWidth="827" pageHeight="1169" math="0" shadow="0">
      <root>
        <mxCell id="0" />
        <mxCell id="1" parent="0" />
        <mxCell id="LNqb5LaYsdVi2xkR0rdf-2" value="Création de l&#39;interface utilisateur" style="text;html=1;align=center;verticalAlign=middle;whiteSpace=wrap;rounded=0;" vertex="1" parent="1">
          <mxGeometry y="30" width="830" height="30" as="geometry" />
        </mxCell>
        <mxCell id="e5xcE8FNcw1IygjeuWAt-2" value="Actor" style="shape=umlActor;verticalLabelPosition=bottom;verticalAlign=top;html=1;outlineConnect=0;" vertex="1" parent="1">
          <mxGeometry x="406" y="80" width="15" height="30" as="geometry" />
        </mxCell>
        <mxCell id="e5xcE8FNcw1IygjeuWAt-4" value="user is on the saas mainPage&lt;div&gt;the widget is integrated on the client&#39;s website (appointments or contact website page&lt;/div&gt;&lt;div&gt;The existing form must be removed or modified to avoid double widgets&lt;/div&gt;" style="text;html=1;align=left;verticalAlign=middle;whiteSpace=wrap;rounded=0;fillColor=#dae8fc;strokeColor=#6c8ebf;" vertex="1" parent="1">
          <mxGeometry x="474" y="60" width="346" height="90" as="geometry" />
        </mxCell>
        <mxCell id="e5xcE8FNcw1IygjeuWAt-10" style="edgeStyle=orthogonalEdgeStyle;rounded=0;orthogonalLoop=1;jettySize=auto;html=1;exitX=0.5;exitY=1;exitDx=0;exitDy=0;entryX=0.5;entryY=0;entryDx=0;entryDy=0;" edge="1" parent="1" source="e5xcE8FNcw1IygjeuWAt-5" target="e5xcE8FNcw1IygjeuWAt-8">
          <mxGeometry relative="1" as="geometry" />
        </mxCell>
        <mxCell id="e5xcE8FNcw1IygjeuWAt-5" value="user action&lt;div&gt;enter a valid postcode in CH&lt;/div&gt;" style="text;html=1;align=center;verticalAlign=middle;whiteSpace=wrap;rounded=0;fillColor=#d5e8d4;strokeColor=#82b366;" vertex="1" parent="1">
          <mxGeometry x="359" y="160" width="110" height="70" as="geometry" />
        </mxCell>
        <mxCell id="e5xcE8FNcw1IygjeuWAt-19" style="edgeStyle=orthogonalEdgeStyle;rounded=0;orthogonalLoop=1;jettySize=auto;html=1;exitX=1;exitY=0.5;exitDx=0;exitDy=0;entryX=0;entryY=0.5;entryDx=0;entryDy=0;" edge="1" parent="1" source="e5xcE8FNcw1IygjeuWAt-8" target="e5xcE8FNcw1IygjeuWAt-15">
          <mxGeometry relative="1" as="geometry" />
        </mxCell>
        <mxCell id="e5xcE8FNcw1IygjeuWAt-25" value="" style="edgeStyle=orthogonalEdgeStyle;rounded=0;orthogonalLoop=1;jettySize=auto;html=1;" edge="1" parent="1" source="e5xcE8FNcw1IygjeuWAt-8" target="e5xcE8FNcw1IygjeuWAt-24">
          <mxGeometry relative="1" as="geometry" />
        </mxCell>
        <mxCell id="e5xcE8FNcw1IygjeuWAt-8" value="valid&lt;div&gt;&lt;span style=&quot;background-color: initial;&quot;&gt;&amp;nbsp;postcode&lt;/span&gt;&lt;/div&gt;" style="rhombus;whiteSpace=wrap;html=1;fillColor=#ffe6cc;strokeColor=#d79b00;" vertex="1" parent="1">
          <mxGeometry x="374" y="260" width="80" height="80" as="geometry" />
        </mxCell>
        <mxCell id="e5xcE8FNcw1IygjeuWAt-11" value="Display User View&lt;div&gt;MapView&lt;/div&gt;&lt;div&gt;CalendarView&lt;/div&gt;&lt;div&gt;AppointmentForm&lt;/div&gt;" style="whiteSpace=wrap;html=1;fillColor=#d5e8d4;strokeColor=#82b366;" vertex="1" parent="1">
          <mxGeometry x="354" y="490" width="120" height="60" as="geometry" />
        </mxCell>
        <mxCell id="e5xcE8FNcw1IygjeuWAt-13" value="yes" style="text;html=1;align=center;verticalAlign=middle;whiteSpace=wrap;rounded=0;" vertex="1" parent="1">
          <mxGeometry x="421" y="340" width="60" height="30" as="geometry" />
        </mxCell>
        <mxCell id="e5xcE8FNcw1IygjeuWAt-14" value="no" style="text;html=1;align=center;verticalAlign=middle;whiteSpace=wrap;rounded=0;" vertex="1" parent="1">
          <mxGeometry x="490" y="260" width="60" height="30" as="geometry" />
        </mxCell>
        <mxCell id="e5xcE8FNcw1IygjeuWAt-17" style="edgeStyle=orthogonalEdgeStyle;rounded=0;orthogonalLoop=1;jettySize=auto;html=1;" edge="1" parent="1" target="e5xcE8FNcw1IygjeuWAt-5">
          <mxGeometry relative="1" as="geometry">
            <mxPoint x="635" y="270" as="sourcePoint" />
            <mxPoint x="474" y="195" as="targetPoint" />
            <Array as="points">
              <mxPoint x="635" y="195" />
            </Array>
          </mxGeometry>
        </mxCell>
        <mxCell id="e5xcE8FNcw1IygjeuWAt-15" value="Display Error message&lt;div&gt;Not a valid postcode in CH (GE?)&lt;/div&gt;" style="whiteSpace=wrap;html=1;fillColor=#f8cecc;strokeColor=#b85450;" vertex="1" parent="1">
          <mxGeometry x="579" y="270" width="120" height="60" as="geometry" />
        </mxCell>
        <mxCell id="e5xcE8FNcw1IygjeuWAt-23" value="&lt;u&gt;&lt;br&gt;&lt;/u&gt;&lt;h4&gt;&lt;strong&gt;&lt;u&gt;Formulaire de proposition de rendez-vous (ProposeAppointmentForm)&lt;/u&gt;&lt;/strong&gt;&lt;/h4&gt;&lt;strong style=&quot;background-color: initial;&quot;&gt;&lt;div style=&quot;text-align: left;&quot;&gt;&lt;strong style=&quot;background-color: initial;&quot;&gt;Fonctions clés :&lt;/strong&gt;&lt;/div&gt;&lt;div style=&quot;text-align: left;&quot;&gt;&lt;strong style=&quot;background-color: initial;&quot;&gt;&lt;br&gt;&lt;/strong&gt;&lt;/div&gt;&lt;div style=&quot;text-align: left;&quot;&gt;&lt;span style=&quot;background-color: initial; font-weight: normal;&quot;&gt;Permettre à l’utilisateur de proposer une nouvelle localisation et une date/heure si aucune option ne lui convient.&lt;/span&gt;&lt;/div&gt;&lt;div style=&quot;text-align: left;&quot;&gt;&lt;span style=&quot;background-color: initial; font-weight: normal;&quot;&gt;&lt;br&gt;&lt;/span&gt;&lt;/div&gt;&lt;/strong&gt;&lt;span style=&quot;background-color: initial;&quot;&gt;&lt;div style=&quot;text-align: left;&quot;&gt;&lt;span style=&quot;background-color: initial;&quot;&gt;Envoyer les informations au commerçant pour validation.&lt;/span&gt;&lt;/div&gt;&lt;div style=&quot;text-align: left;&quot;&gt;&lt;span style=&quot;background-color: initial;&quot;&gt;&lt;br&gt;&lt;/span&gt;&lt;/div&gt;&lt;/span&gt;&lt;span style=&quot;background-color: initial;&quot;&gt;&lt;div style=&quot;text-align: left;&quot;&gt;&lt;span style=&quot;background-color: initial;&quot;&gt;Ajouter automatiquement la localisation à la carte et au calendrier une fois validée par le commerçant.(confirmée ou proposée)&lt;/span&gt;&lt;/div&gt;&lt;/span&gt;&lt;div style=&quot;text-align: left;&quot;&gt;&lt;br&gt;&lt;/div&gt;" style="text;html=1;align=center;verticalAlign=middle;whiteSpace=wrap;rounded=0;fillColor=#dae8fc;strokeColor=#6c8ebf;" vertex="1" parent="1">
          <mxGeometry x="10" y="940" width="230" height="340" as="geometry" />
        </mxCell>
        <mxCell id="e5xcE8FNcw1IygjeuWAt-27" value="" style="edgeStyle=orthogonalEdgeStyle;rounded=0;orthogonalLoop=1;jettySize=auto;html=1;" edge="1" parent="1" source="e5xcE8FNcw1IygjeuWAt-24" target="e5xcE8FNcw1IygjeuWAt-11">
          <mxGeometry relative="1" as="geometry" />
        </mxCell>
        <mxCell id="e5xcE8FNcw1IygjeuWAt-24" value="User Action&lt;div&gt;to select the service wanted&lt;/div&gt;" style="whiteSpace=wrap;html=1;fillColor=#d5e8d4;strokeColor=#82b366;" vertex="1" parent="1">
          <mxGeometry x="354" y="390" width="120" height="60" as="geometry" />
        </mxCell>
        <mxCell id="e5xcE8FNcw1IygjeuWAt-26" value="&lt;b&gt;&lt;u&gt;Service to choose&lt;/u&gt;&lt;/b&gt;&lt;br&gt;&lt;div&gt;&lt;br&gt;&lt;/div&gt;&lt;div&gt;Display a services list&lt;/div&gt;&lt;div&gt;&lt;br&gt;&lt;/div&gt;&lt;div&gt;&lt;br&gt;&lt;/div&gt;" style="text;html=1;align=center;verticalAlign=middle;whiteSpace=wrap;rounded=0;fillColor=#dae8fc;strokeColor=#6c8ebf;" vertex="1" parent="1">
          <mxGeometry x="10" y="160" width="230" height="120" as="geometry" />
        </mxCell>
        <mxCell id="e5xcE8FNcw1IygjeuWAt-28" value="&lt;div style=&quot;text-align: center;&quot;&gt;&lt;strong style=&quot;background-color: initial;&quot;&gt;&lt;u&gt;Carte interactive (MapView)&lt;/u&gt;&lt;/strong&gt;&lt;/div&gt;&lt;div style=&quot;text-align: center;&quot;&gt;&lt;strong style=&quot;background-color: initial;&quot;&gt;&lt;br&gt;&lt;/strong&gt;&lt;/div&gt;&lt;strong style=&quot;background-color: initial;&quot;&gt;Fonctions clés :&lt;/strong&gt;&lt;div&gt;&lt;b&gt;&lt;br&gt;&lt;/b&gt;&lt;div&gt;&lt;span style=&quot;background-color: initial;&quot;&gt;Afficher les rendez-vous confirmés par localisation (avec un cercle ou un marqueur).&lt;/span&gt;&lt;/div&gt;&lt;div&gt;&lt;br&gt;&lt;span style=&quot;background-color: initial;&quot;&gt;Afficher les localisations proposées, mais non confirmées (différenciées visuellement, par exemple par couleur).&lt;/span&gt;&lt;/div&gt;&lt;div&gt;&lt;br&gt;&lt;span style=&quot;background-color: initial;&quot;&gt;Mettre à jour la carte selon la date ou la vue sélectionnée dans le calendrier.&lt;/span&gt;&lt;/div&gt;&lt;div&gt;&lt;br&gt;&lt;span style=&quot;background-color: initial;&quot;&gt;Ajuster le rayon des localisations (réglable par l&#39;utilisateur via les préférences).&lt;/span&gt;&lt;/div&gt;&lt;/div&gt;" style="text;html=1;align=left;verticalAlign=middle;whiteSpace=wrap;rounded=0;fillColor=#dae8fc;strokeColor=#6c8ebf;" vertex="1" parent="1">
          <mxGeometry x="10" y="290" width="230" height="270" as="geometry" />
        </mxCell>
        <mxCell id="e5xcE8FNcw1IygjeuWAt-29" value="&lt;div style=&quot;&quot;&gt;&lt;h4 style=&quot;text-align: center;&quot;&gt;&lt;strong&gt;&lt;u&gt;Calendrier interactif (CalendarView)&lt;/u&gt;&lt;/strong&gt;&lt;/h4&gt;&lt;strong style=&quot;background-color: initial;&quot;&gt;Fonctions clés :&lt;/strong&gt;&lt;/div&gt;&lt;div style=&quot;&quot;&gt;&lt;strong style=&quot;background-color: initial;&quot;&gt;&lt;br&gt;&lt;/strong&gt;&lt;/div&gt;&lt;div style=&quot;&quot;&gt;&lt;span style=&quot;background-color: initial;&quot;&gt;Afficher les rendez-vous confirmés pour le jour sélectionné.&lt;/span&gt;&lt;/div&gt;&lt;div style=&quot;&quot;&gt;&lt;br&gt;&lt;span style=&quot;background-color: initial;&quot;&gt;Afficher les créneaux horaires disponibles par localisation.&lt;/span&gt;&lt;/div&gt;&lt;div style=&quot;&quot;&gt;&lt;br&gt;&lt;span style=&quot;background-color: initial;&quot;&gt;Permettre un changement de vue entre &lt;/span&gt;&lt;strong style=&quot;background-color: initial;&quot;&gt;Jour&lt;/strong&gt;&lt;span style=&quot;background-color: initial;&quot;&gt; (par défaut)&lt;/span&gt;&lt;br&gt;&lt;strong style=&quot;background-color: initial;&quot;&gt;Semaine&lt;/strong&gt;&lt;br&gt;&lt;strong style=&quot;background-color: initial;&quot;&gt;Mois&lt;/strong&gt;&lt;/div&gt;&lt;div style=&quot;&quot;&gt;&lt;b&gt;&lt;br&gt;&lt;/b&gt;&lt;span style=&quot;background-color: initial;&quot;&gt;Filtrer les rendez-vous et localisations selon le service sélectionné par l’utilisateur.&lt;/span&gt;&lt;/div&gt;&lt;div style=&quot;&quot;&gt;&lt;br&gt;&lt;span style=&quot;background-color: initial;&quot;&gt;Synchroniser les changements de vue avec la carte interactive.&lt;/span&gt;&lt;/div&gt;" style="text;html=1;align=left;verticalAlign=middle;whiteSpace=wrap;rounded=0;fillColor=#dae8fc;strokeColor=#6c8ebf;" vertex="1" parent="1">
          <mxGeometry x="10" y="570" width="230" height="360" as="geometry" />
        </mxCell>
      </root>
    </mxGraphModel>
  </diagram>
  <diagram id="qoHrRQ_AduoFjs8aasdx" name="Page-2">
    <mxGraphModel dx="1228" dy="1101" grid="1" gridSize="10" guides="1" tooltips="1" connect="1" arrows="1" fold="1" page="1" pageScale="1" pageWidth="827" pageHeight="1169" math="0" shadow="0">
      <root>
        <mxCell id="0" />
        <mxCell id="1" parent="0" />
        <mxCell id="bDPXtmPTGtZuU55x4_E4-1" value="Création de l&#39;interface admin du logiciel" style="text;html=1;align=center;verticalAlign=middle;whiteSpace=wrap;rounded=0;" vertex="1" parent="1">
          <mxGeometry y="20" width="830" height="30" as="geometry" />
        </mxCell>
      </root>
    </mxGraphModel>
  </diagram>
</mxfile>
